<mxfile host="app.diagrams.net" modified="2024-03-25T07:14:00.069Z" agent="Mozilla/5.0 (Windows NT 10.0; Win64; x64) AppleWebKit/537.36 (KHTML, like Gecko) Chrome/123.0.0.0 Safari/537.36" version="24.1.0" etag="3RtWMyJgJRLGODy7PiUp" type="github">
  <diagram name="第 1 页" id="spiNlkM-TbmhVh81Pjsh">
    <mxGraphModel>
      <root>
        <mxCell id="0" />
        <mxCell id="1" parent="0" />
      </root>
    </mxGraphModel>
  </diagram>
</mxfile>
